<?xml version="1.0" encoding="utf-8"?>
<!-- Generator: Adobe Illustrator 16.0.0, SVG Export Plug-In . SVG Version: 6.00 Build 0)  -->
<!DOCTYPE svg PUBLIC "-//W3C//DTD SVG 1.1//EN" "http://www.w3.org/Graphics/SVG/1.1/DTD/svg11.dtd">
<svg version="1.1" id="Layer_1" xmlns="http://www.w3.org/2000/svg" xmlns:xlink="http://www.w3.org/1999/xlink" x="0px" y="0px"
	 width="612px" height="792px" viewBox="0 0 612 792" enable-background="new 0 0 612 792" xml:space="preserve">
<polygon opacity="0.3" fill="#93C83E" stroke="#000000" stroke-miterlimit="10" enable-background="new    " points="260.881,396 
	174.84,359.973 174.84,140.878 260.881,176.905 "/>
<polygon opacity="0.3" fill="#93C83E" stroke="#000000" stroke-miterlimit="10" enable-background="new    " points="66.458,396 
	174.839,359.973 174.839,140.878 66.458,176.905 "/>
<polygon fill="#93C83E" stroke="#000000" stroke-miterlimit="10" points="152.879,326.033 66.458,288.2 174.46,245.967 
	260.881,283.8 "/>
<polygon opacity="0.3" fill="#93C83E" stroke="#000000" stroke-miterlimit="10" enable-background="new    " points="152.5,431.562 
	66.458,395.535 66.458,176.439 152.5,212.466 "/>
<polygon opacity="0.3" fill="#93C83E" stroke="#000000" stroke-miterlimit="10" enable-background="new    " points="152.5,431.562 
	260.881,395.535 260.881,176.439 152.5,212.466 "/>
<polygon opacity="0.3" fill="#EEE852" stroke="#000000" stroke-miterlimit="10" enable-background="new    " points="
	566.881,401.781 480.84,365.754 480.84,146.659 566.881,182.686 "/>
<polygon opacity="0.3" fill="#EEE852" stroke="#000000" stroke-miterlimit="10" enable-background="new    " points="
	372.459,401.781 480.84,365.754 480.84,146.659 372.459,182.686 "/>
<polygon fill="#EFE853" stroke="#000000" stroke-miterlimit="10" points="458.879,326.033 372.459,288.2 480.461,245.967 
	566.881,283.8 "/>
<polygon opacity="0.3" fill="#EEE852" stroke="#000000" stroke-miterlimit="10" enable-background="new    " points="458.5,437.343 
	372.459,401.316 372.459,182.22 458.5,218.247 "/>
<polygon opacity="0.3" fill="#EEE852" stroke="#000000" stroke-miterlimit="10" enable-background="new    " points="458.5,437.343 
	566.881,401.316 566.881,182.22 458.5,218.247 "/>
<path display="none" fill="none" stroke="#000000" stroke-miterlimit="10" d="M269.761,274.963
	C292.491,248.34,335.089,247.462,365,273"/>
<path display="none" fill="none" stroke="#000000" stroke-miterlimit="10" d="M270.761,295.722
	c22.73,26.623,65.328,27.501,95.239,1.963"/>
<polygon display="none" stroke="#000000" stroke-miterlimit="10" points="361.604,274.987 365.578,269.439 368.396,275.654 "/>
<polygon display="none" stroke="#000000" stroke-miterlimit="10" points="275.281,295.784 270.06,300.178 268.865,293.459 "/>
<text transform="matrix(1 0 0 1 310 275.5)" font-family="'TimesNewRomanPS-BoldMT'" font-size="18">X</text>
<text transform="matrix(1 0 0 1 310 310)" font-family="'TimesNewRomanPS-BoldMT'" font-size="18">X</text>
<text transform="matrix(1 0 0 1 322 301)" font-family="'TimesNewRomanPS-BoldMT'" font-size="9">T</text>
<text transform="matrix(1 0 0 1 166.5 294.7227)" font-family="'TimesNewRomanPS-BoldMT'" font-size="12">0</text>
<text transform="matrix(1 0 0 1 473 295.7227)" font-family="'TimesNewRomanPS-BoldMT'" font-size="12">0</text>
<g>
	<g>
		
			<line fill="none" stroke="#000000" stroke-width="2" stroke-miterlimit="10" x1="535.336" y1="286.373" x2="535.332" y2="285.373"/>
		
			<line fill="none" stroke="#000000" stroke-width="2" stroke-miterlimit="10" stroke-dasharray="1.9436,1.9436" x1="535.325" y1="283.429" x2="535.131" y2="229.979"/>
		
			<line fill="none" stroke="#000000" stroke-width="2" stroke-miterlimit="10" x1="535.128" y1="229.007" x2="535.124" y2="228.007"/>
		<g>
			<polygon points="536.98,229.405 535.126,228.625 533.277,229.418 535.113,225.022 			"/>
		</g>
	</g>
</g>
<g>
	<g>
		
			<line fill="none" stroke="#000000" stroke-width="2" stroke-miterlimit="10" x1="469.013" y1="287.228" x2="530.026" y2="225.821"/>
		<g>
			<polygon points="530.674,230.423 529.156,226.697 525.42,225.203 534.234,221.586 			"/>
		</g>
	</g>
</g>
<g>
	<g>
		
			<line fill="none" stroke="#000000" stroke-width="2" stroke-miterlimit="10" stroke-dasharray="6,6" x1="471.165" y1="286.077" x2="531.609" y2="285.976"/>
		<g>
			<polygon points="529.088,289.313 530.498,285.978 529.076,282.647 536.982,285.967 			"/>
		</g>
	</g>
</g>
<circle stroke="#000000" stroke-miterlimit="10" cx="470.5" cy="286" r="1.666"/>
<g>
	<g>
		<line fill="none" stroke="#000000" stroke-width="2" stroke-miterlimit="10" x1="166.5" y1="284.39" x2="226.348" y2="284.29"/>
		<g>
			<polygon points="223.545,287.998 225.112,284.292 223.533,280.592 232.317,284.28 			"/>
		</g>
	</g>
</g>
<circle stroke="#000000" stroke-miterlimit="10" cx="164.505" cy="284.335" r="1.666"/>
<text transform="matrix(1 0 0 1 497.9824 247.5859)" font-family="'TimesNewRomanPS-BoldMT'" font-size="14">ŷ</text>
<text transform="matrix(1 0 0 1 501.1133 297.8184)" font-family="'TimesNewRomanPS-BoldMT'" font-size="14">ŷ′</text>
<text transform="matrix(1 0 0 1 538.2246 261.7246)" font-family="'TimesNewRomanPS-BoldMT'" font-size="14">ŷ</text>
<text transform="matrix(0.6492 0 0 1 543.7402 267.6445)" font-family="'TimesNewRomanPS-BoldMT'" font-size="18.87">﬩</text>
<g>
	<g>
		<path fill="none" stroke="#EE1C4F" stroke-width="2" stroke-miterlimit="10" stroke-dasharray="6,6" d="M204.379,305.355
			C283.9,385.307,416.399,385.264,504.074,304"/>
		<g>
			<polygon fill="#EE1C4F" points="201.879,309.839 199.409,300.178 209.011,302.868 			"/>
		</g>
	</g>
</g>
<g>
	<text transform="matrix(1 0 0 1 192.6133 297.8184)" font-family="'TimesNewRomanPS-BoldMT'" font-size="14">ĉ</text>
</g>
<g>
	<g>
		<path fill="none" stroke="#EE1C4F" stroke-width="2" stroke-miterlimit="10" d="M541.355,269.187c0,0.333-0.002,0.667-0.003,1"/>
		<path fill="none" stroke="#EE1C4F" stroke-width="2" stroke-miterlimit="10" stroke-dasharray="2.0029,2.0029" d="M541.337,272.19
			c-1.509,122.075-94.878,220.541-209.836,220.541c-92.092,0-166.865-78.987-167.873-176.833"/>
		<path fill="none" stroke="#EE1C4F" stroke-width="2" stroke-miterlimit="10" d="M163.62,314.895c-0.001-0.333-0.002-0.667-0.002-1
			"/>
	</g>
</g>
<g>
	<g>
		
			<line fill="none" stroke="#EE1C4F" stroke-width="2" stroke-miterlimit="10" x1="163.61" y1="313.895" x2="163.614" y2="312.395"/>
		
			<line fill="none" stroke="#EE1C4F" stroke-width="2" stroke-miterlimit="10" stroke-dasharray="2.8662,2.8662" x1="163.622" y1="309.529" x2="163.649" y2="299.497"/>
		
			<line fill="none" stroke="#EE1C4F" stroke-width="2" stroke-miterlimit="10" x1="163.653" y1="298.064" x2="163.658" y2="296.564"/>
		<g>
			<polygon fill="#EE1C4F" points="168.64,298.037 163.677,289.388 158.667,298.009 			"/>
		</g>
	</g>
</g>
<text transform="matrix(1 0 0 1 292.2812 450.0586)" fill="#EA2350" font-family="'TimesNewRomanPS-BoldMT'" font-size="68.9251">X</text>
<text transform="matrix(1 0 0 1 340.0596 411.7676)" fill="#EA2350" font-family="'TimesNewRomanPS-BoldMT'" font-size="34.4626">T</text>
<line fill="none" stroke="#000000" stroke-width="2" stroke-miterlimit="10" x1="270.333" y1="281.22" x2="361" y2="281.22"/>
<line fill="none" stroke="#000000" stroke-width="2" stroke-miterlimit="10" x1="273.333" y1="289.388" x2="364" y2="289.388"/>
<line fill="none" stroke="#000000" stroke-width="2" stroke-miterlimit="10" x1="363.344" y1="283.062" x2="352.963" y2="273.75"/>
<rect x="360.844" y="282.206" fill="#FFFFFF" width="3.781" height="1.969"/>
<line fill="none" stroke="#000000" stroke-width="2" stroke-miterlimit="10" x1="271.615" y1="287.479" x2="281.996" y2="296.792"/>
<rect x="270.334" y="286.368" fill="#FFFFFF" width="3.781" height="1.969"/>
<text transform="matrix(1 0 0 1 109.6665 135)" font-family="'TimesNewRomanPS-BoldMT'" font-size="14">space of coefficients</text>
<text transform="matrix(1 0 0 1 426.333 139)" font-family="'TimesNewRomanPS-BoldMT'" font-size="14">space of y values</text>
<text transform="matrix(1 0 0 1 410.6016 658.5859)" font-family="'TimesNewRomanPS-BoldMT'" font-size="14">ŷ - </text>
<text transform="matrix(1 0 0 1 429.2637 658.5859)" font-family="'TimesNewRomanPSMT'" font-size="12">vector of y value</text>
<text transform="matrix(1 0 0 1 510.2285 658.5859)" font-family="'TimesNewRomanPSMT'" font-size="12">s</text>
<text transform="matrix(1 0 0 1 410.8438 683.0586)" font-family="'TimesNewRomanPS-BoldMT'" font-size="14">ŷ - </text>
<text transform="matrix(1 0 0 1 429.5059 683.0586)" font-family="'TimesNewRomanPSMT'" font-size="12">component of vector of y values</text>
<text transform="matrix(1 0 0 1 410.8438 697.458)" font-family="'TimesNewRomanPSMT'" font-size="12">      </text>
<text transform="matrix(0.6492 0 0 1 416.3594 687.9785)" font-family="'TimesNewRomanPS-BoldMT'" font-size="18.87">﬩</text>
<text transform="matrix(1 0 0 1 410.6025 716.8184)" font-family="'TimesNewRomanPS-BoldMT'" font-size="14">ŷ′- </text>
<text transform="matrix(1 0 0 1 429.7031 716.8184)" font-family="'TimesNewRomanPSMT'" font-size="12">component of vector of y values</text>
<text transform="matrix(1 0 0 1 410.6025 731.2188)" font-family="'TimesNewRomanPSMT'" font-size="12">       </text>
<g>
	<text transform="matrix(1 0 0 1 410.8438 623.1523)" font-family="'TimesNewRomanPS-BoldMT'" font-size="14">ĉ - </text>
	<text transform="matrix(1 0 0 1 428.7188 623.1523)" font-family="'TimesNewRomanPSMT'" font-size="12">vector of coefficient c value that </text>
	<text transform="matrix(1 0 0 1 410.8438 637.5518)" font-family="'TimesNewRomanPSMT'" font-size="12">      </text>
</g>
<text transform="matrix(1 0 0 1 331.4082 235.6895)" font-family="'TimesNewRomanPSMT'" font-size="10">space of possible y values</text>
<text transform="matrix(1 0 0 1 331.4082 247.6895)" font-family="'TimesNewRomanPSMT'" font-size="10">spannable by map </text>
<text transform="matrix(1 0 0 1 406.1104 247.6895)" font-family="'TimesNewRomanPS-BoldMT'" font-size="10">X - </text>
<text transform="matrix(1 0 0 1 421.6621 247.6895)" font-family="'TimesNewRomanPSMT'" font-size="10">im(</text>
<text transform="matrix(1 0 0 1 435.5488 247.6895)" font-family="'TimesNewRomanPS-BoldMT'" font-size="10">X</text>
<text transform="matrix(1 0 0 1 442.7695 247.6895)" font-family="'TimesNewRomanPSMT'" font-size="10">)</text>
<text transform="matrix(1 0 0 1 9.7412 332.6562)" font-family="'TimesNewRomanPSMT'" font-size="10">space of possible c values</text>
<text transform="matrix(1 0 0 1 9.7412 344.6562)" font-family="'TimesNewRomanPSMT'" font-size="10">that the map </text>
<text transform="matrix(1 0 0 1 61.6699 344.6562)" font-family="'TimesNewRomanPS-BoldMT'" font-size="10">X</text>
<text transform="matrix(1 0 0 1 68.8916 344.6562)" font-family="'TimesNewRomanPSMT'" font-size="10"> can take as </text>
<text transform="matrix(1 0 0 1 9.7412 356.6562)" font-family="'TimesNewRomanPSMT'" font-size="10">its inputs - equivalently,</text>
<text transform="matrix(1 0 0 1 9.7412 369.6562)" font-family="'TimesNewRomanPSMT'" font-size="10">the im(</text>
<text transform="matrix(1 0 0 1 38.3447 369.6562)" font-family="'TimesNewRomanPS-BoldMT'" font-size="10">X</text>
<text transform="matrix(1 0 0 1 45.5664 366.3262)" font-family="'TimesNewRomanPS-BoldMT'" font-size="5.83">T</text>
<text transform="matrix(1 0 0 1 49.4551 369.6562)" font-family="'TimesNewRomanPSMT'" font-size="10">)</text>
<text transform="matrix(1 0 0 1 392.4082 292.1357)" font-family="'TimesNewRomanPSMT'" font-size="14">im(</text>
<text transform="matrix(1 0 0 1 411.8496 292.1357)" font-family="'TimesNewRomanPS-BoldMT'" font-size="14">X</text>
<text transform="matrix(1 0 0 1 421.96 292.1357)" font-family="'TimesNewRomanPSMT'" font-size="14">)</text>
<text transform="matrix(1 0 0 1 84.4082 292.1357)" font-family="'TimesNewRomanPSMT'" font-size="14">im(</text>
<text transform="matrix(1 0 0 1 103.8496 292.1357)" font-family="'TimesNewRomanPS-BoldMT'" font-size="14">X</text>
<text transform="matrix(1 0 0 1 113.96 287.4736)" font-family="'TimesNewRomanPS-BoldMT'" font-size="8.162">T</text>
<text transform="matrix(1 0 0 1 119.4038 292.1357)" font-family="'TimesNewRomanPSMT'" font-size="14">)</text>
<g>
	<g>
		<line fill="none" stroke="#000000" stroke-miterlimit="10" x1="84.408" y1="321.001" x2="90.573" y2="308.804"/>
		<g>
			<polygon points="93.417,311.468 93,304 86.741,308.094 			"/>
		</g>
	</g>
</g>
<g>
	<g>
		<line fill="none" stroke="#000000" stroke-miterlimit="10" x1="390.113" y1="254.225" x2="396.277" y2="266.421"/>
		<g>
			<polygon points="392.445,267.132 398.705,271.225 399.121,263.758 			"/>
		</g>
	</g>
</g>
<text transform="matrix(1 0 0 1 410.0752 189.1357)" font-family="'TimesNewRomanPSMT'" font-size="14">ker(</text>
<text transform="matrix(1 0 0 1 432.6133 189.1357)" font-family="'TimesNewRomanPS-BoldMT'" font-size="14">X</text>
<text transform="matrix(1 0 0 1 442.7236 184.4736)" font-family="'TimesNewRomanPS-BoldMT'" font-size="8.162">T</text>
<text transform="matrix(1 0 0 1 448.168 189.1357)" font-family="'TimesNewRomanPSMT'" font-size="14">)</text>
<text transform="matrix(1 0 0 1 104.4795 183.8867)" font-family="'TimesNewRomanPSMT'" font-size="14">ker(</text>
<text transform="matrix(1 0 0 1 127.0176 183.8867)" font-family="'TimesNewRomanPS-BoldMT'" font-size="14">X</text>
<text transform="matrix(1 0 0 1 137.1274 183.8867)" font-family="'TimesNewRomanPSMT'" font-size="14">)</text>
<text transform="matrix(1 0 0 1 64.2798 552.8018)" font-family="'TimesNewRomanPSMT'" font-size="14">im(</text>
<text transform="matrix(1 0 0 1 83.7207 552.8018)" font-family="'TimesNewRomanPS-BoldMT'" font-size="14">X</text>
<text transform="matrix(1 0 0 1 93.832 552.8018)" font-family="'TimesNewRomanPSMT'" font-size="14">)    - </text>
<text transform="matrix(1 0 0 1 120.6558 552.8018)" font-family="'TimesNewRomanPSMT'" font-size="12">space of y values spannable by the</text>
<text transform="matrix(1 0 0 1 64.2798 567.2012)" font-family="'TimesNewRomanPSMT'" font-size="12">                           </text>
<text transform="matrix(1 0 0 1 145.2798 567.2012)" font-family="'TimesNewRomanPS-BoldMT'" font-size="12">X</text>
<text transform="matrix(1 0 0 1 64.2798 590.8018)" font-family="'TimesNewRomanPSMT'" font-size="14">im(</text>
<text transform="matrix(1 0 0 1 83.7212 590.8018)" font-family="'TimesNewRomanPS-BoldMT'" font-size="14">X</text>
<text transform="matrix(1 0 0 1 93.8311 586.1396)" font-family="'TimesNewRomanPS-BoldMT'" font-size="8.162">T</text>
<text transform="matrix(1 0 0 1 99.2759 590.8018)" font-family="'TimesNewRomanPSMT'" font-size="14">)  - </text>
<text transform="matrix(1 0 0 1 119.1001 590.8018)" font-family="'TimesNewRomanPSMT'" font-size="12">space of c values spannable by the</text>
<text transform="matrix(1 0 0 1 64.2798 605.2012)" font-family="'TimesNewRomanPSMT'" font-size="12">                           </text>
<text transform="matrix(1 0 0 1 145.2798 605.2012)" font-family="'TimesNewRomanPS-BoldMT'" font-size="12">X</text>
<text transform="matrix(1 0 0 1 153.9453 601.2051)" font-family="'TimesNewRomanPS-BoldMT'" font-size="6.996">T</text>
<text transform="matrix(1 0 0 1 64.2798 627.834)" font-family="'TimesNewRomanPSMT'" font-size="14">ker(</text>
<text transform="matrix(1 0 0 1 86.8179 627.834)" font-family="'TimesNewRomanPS-BoldMT'" font-size="14">X</text>
<text transform="matrix(1 0 0 1 96.9277 627.834)" font-family="'TimesNewRomanPSMT'" font-size="14">)  - </text>
<text transform="matrix(1 0 0 1 116.7529 627.834)" font-family="'TimesNewRomanPSMT'" font-size="12">space of y values mapped by </text>
<text transform="matrix(1 0 0 1 258.04 627.834)" font-family="'TimesNewRomanPS-BoldMT'" font-size="12">X </text>
<text transform="matrix(1 0 0 1 269.7061 627.834)" font-family="'TimesNewRomanPSMT'" font-size="12">to</text>
<text transform="matrix(1 0 0 1 285.04 627.834)" font-family="'TimesNewRomanPS-BoldMT'" font-size="12"> 0</text>
<text transform="matrix(1 0 0 1 64.2798 642.2344)" font-family="'TimesNewRomanPS-BoldMT'" font-size="12">                 </text>
<text transform="matrix(1 0 0 1 115.2798 642.2344)" font-family="'TimesNewRomanPSMT'" font-size="12">in the output spac</text>
<text transform="matrix(1 0 0 1 200.2637 642.2344)" font-family="'TimesNewRomanPSMT'" font-size="12">e</text>
<text transform="matrix(1 0 0 1 64.2798 661.1357)" font-family="'TimesNewRomanPSMT'" font-size="14">ker(</text>
<text transform="matrix(1 0 0 1 86.8179 661.1357)" font-family="'TimesNewRomanPS-BoldMT'" font-size="14">X</text>
<text transform="matrix(1 0 0 1 96.9277 656.4736)" font-family="'TimesNewRomanPS-BoldMT'" font-size="8.162">T</text>
<text transform="matrix(1 0 0 1 102.3721 661.1357)" font-family="'TimesNewRomanPSMT'" font-size="14">) - </text>
<text transform="matrix(1 0 0 1 118.6963 661.1357)" font-family="'TimesNewRomanPSMT'" font-size="12">space of y values mapped by </text>
<text transform="matrix(1 0 0 1 275.5381 661.1357)" font-family="'TimesNewRomanPS-BoldMT'" font-size="12"> </text>
<text transform="matrix(1 0 0 1 278.5381 661.1357)" font-family="'TimesNewRomanPSMT'" font-size="12">to</text>
<text transform="matrix(1 0 0 1 293.8721 661.1357)" font-family="'TimesNewRomanPS-BoldMT'" font-size="12"> 0</text>
<text transform="matrix(1 0 0 1 64.2798 675.5352)" font-family="'TimesNewRomanPS-BoldMT'" font-size="12">                  </text>
<text transform="matrix(1 0 0 1 118.2798 675.5352)" font-family="'TimesNewRomanPSMT'" font-size="12">in the input space</text>
<text transform="matrix(1 0 0 1 410.8438 553.1846)" font-family="'TimesNewRomanPS-BoldMT'" font-size="14">X - </text>
<text transform="matrix(1 0 0 1 432.6152 553.1846)" font-family="'TimesNewRomanPSMT'" font-size="12">map / matrix of x values, determined</text>
<text transform="matrix(1 0 0 1 410.8438 567.585)" font-family="'TimesNewRomanPSMT'" font-size="12">      </text>
<text transform="matrix(1 0 0 1 410.0752 586.5176)" font-family="'TimesNewRomanPS-BoldMT'" font-size="14">X</text>
<text transform="matrix(1 0 0 1 420.1855 581.8555)" font-family="'TimesNewRomanPS-BoldMT'" font-size="8.162">T</text>
<text transform="matrix(1 0 0 1 425.6299 586.5176)" font-family="'TimesNewRomanPS-BoldMT'" font-size="14">- </text>
<text transform="matrix(1 0 0 1 433.792 586.5176)" font-family="'TimesNewRomanPSMT'" font-size="12">reverse of map / matrix </text>
<text transform="matrix(1 0 0 1 548.7471 586.5176)" font-family="'TimesNewRomanPS-BoldMT'" font-size="12">X</text>
<text transform="matrix(1 0 0 1 557.4131 586.5176)" font-family="'TimesNewRomanPSMT'" font-size="12">,</text>
<text transform="matrix(1 0 0 1 410.0752 596.1172)" font-family="'TimesNewRomanPSMT'" font-size="6">                 </text>
<text transform="matrix(1 0 0 1 435.5752 596.1172)" font-family="'TimesNewRomanPSMT'" font-size="8">necessarily determined by the x values and particular </text>
<text transform="matrix(1 0 0 1 408.999 527.6777)" font-family="'TimesNewRomanPS-BoldMT'" font-size="20.988" text-decoration=" underline">Vectors / Matrices</text>
<text transform="matrix(1 0 0 1 66.458 527.6777)" font-family="'TimesNewRomanPS-BoldMT'" font-size="20.988" text-decoration=" underline">Fundamental Subspaces</text>
<text transform="matrix(1 0 0 1 40 747.3359)" font-family="'TimesNewRomanPSMT'" font-size="4.664">© Jeff Y.C. Yang 2015</text>
<text transform="matrix(1 0 0 1 120.6489 567.167)" font-family="'TimesNewRomanPSMT'" font-size="12">map </text>
<text transform="matrix(1 0 0 1 120.6489 605.167)" font-family="'TimesNewRomanPSMT'" font-size="12">map </text>
<text transform="matrix(1 0 0 1 428.6494 567.167)" font-family="'TimesNewRomanPSMT'" font-size="12"> by particular function space</text>
<text transform="matrix(1 0 0 1 409.8438 606.167)" font-family="'TimesNewRomanPSMT'" font-size="8">             function space, as well</text>
<text transform="matrix(1 0 0 1 428.6494 636.5176)" font-family="'TimesNewRomanPSMT'" font-size="12">best fit the given map </text>
<text transform="matrix(1 0 0 1 535.625 636.5176)" font-family="'TimesNewRomanPS-BoldMT'" font-size="12">X</text>
<text transform="matrix(1 0 0 1 544.291 636.5176)" font-family="'TimesNewRomanPSMT'" font-size="12"> and vector </text>
<text transform="matrix(1 0 0 1 600.5986 636.5176)" font-family="'TimesNewRomanPS-BoldMT'" font-size="12">ŷ</text>
<text transform="matrix(1 0 0 1 430.6494 697.4238)" font-family="'TimesNewRomanPSMT'" font-size="12">not within the span of the map </text>
<text transform="matrix(1 0 0 1 579.625 697.4238)" font-family="'TimesNewRomanPS-BoldMT'" font-size="12">X</text>
<text transform="matrix(1 0 0 1 430.333 731.1836)" font-family="'TimesNewRomanPSMT'" font-size="12">within the span of the map </text>
<text transform="matrix(1 0 0 1 560.9746 731.1836)" font-family="'TimesNewRomanPS-BoldMT'" font-size="12">X</text>
<text transform="matrix(1 0 0 1 261.8809 661.584)" font-family="'TimesNewRomanPS-BoldMT'" font-size="12">X</text>
<text transform="matrix(1 0 0 1 270.5469 657.5879)" font-family="'TimesNewRomanPS-BoldMT'" font-size="6.996">T</text>
<text transform="matrix(1 0 0 1 116.7529 63.6084)" font-family="'TimesNewRomanPS-BoldMT'" font-size="21.9327">Least Squares Regression - Visual Diagram</text>
</svg>
